<?xml version="1.0" standalone="no"?>
<!DOCTYPE svg PUBLIC "-//W3C//DTD SVG 20010904//EN"
 "http://www.w3.org/TR/2001/REC-SVG-20010904/DTD/svg10.dtd">
<svg version="1.0" xmlns="http://www.w3.org/2000/svg"
 width="800.000000pt" height="600.000000pt" viewBox="0 0 800.000000 600.000000"
 preserveAspectRatio="xMidYMid meet">

<g transform="translate(0.000000,600.000000) scale(0.100000,-0.100000)"
fill="#ccc" stroke="none">
<path d="M861 5384 c-117 -24 -129 -29 -117 -41 5 -6 67 4 218 34 26 5 27 3
34 -46 9 -72 24 -63 24 14 0 77 10 75 -159 39z"/>
<path d="M526 4754 c-34 -34 -9 -94 39 -94 30 0 55 25 55 55 0 30 -25 55 -55
55 -13 0 -31 -7 -39 -16z m68 -29 c7 -19 -20 -46 -39 -39 -21 8 -26 32 -9 48
16 17 40 12 48 -9z"/>
<path fill="#2c3e50" d="M4590 4358 c-219 -185 -222 -187 -215 -198 4 -6 10 -10 14 -10 4 0
77 58 162 130 85 71 158 130 162 130 4 0 5 -55 2 -122 -9 -158 -21 -432 -20
-435 0 -1 51 40 112 90 62 51 112 100 112 110 1 9 -2 17 -7 17 -4 0 -45 -31
-92 -70 -46 -38 -85 -68 -86 -67 -2 1 3 128 10 282 8 154 13 281 12 281 0 1
-75 -61 -166 -138z"/>
<path fill="#3498db" d="M2638 4203 l-77 -77 -59 37 c-58 36 -89 47 -77 27 3 -5 36 -27 73
-50 l67 -40 76 76 77 76 57 -76 c32 -42 61 -73 66 -70 8 4 -109 173 -121 174
-3 0 -40 -35 -82 -77z"/>
<path fill="#00d2d3" d="M0 2440 c0 -5 9 -10 20 -10 13 0 20 -7 20 -19 0 -26 15 -34 46 -27
15 4 24 14 24 26 0 11 7 20 15 20 9 0 15 -9 15 -25 0 -16 -6 -25 -15 -25 -10
0 -15 -10 -15 -30 0 -20 5 -30 15 -30 20 0 20 -56 0 -64 -20 -7 -20 -66 0 -66
10 0 15 -11 15 -35 0 -24 -5 -35 -15 -35 -10 0 -15 -10 -15 -30 0 -20 5 -30
15 -30 20 0 20 -56 0 -64 -20 -7 -20 -66 0 -66 10 0 15 -11 15 -35 0 -24 -5
-35 -15 -35 -10 0 -15 -10 -15 -30 0 -20 5 -30 15 -30 10 0 15 -10 15 -29 0
-16 -6 -31 -15 -35 -8 -3 -15 -12 -15 -21 0 -11 -10 -15 -35 -15 -28 0 -35 4
-35 20 0 16 7 20 35 20 32 0 35 2 35 30 0 28 -3 30 -35 30 -32 0 -35 2 -35 30
0 23 -4 30 -20 30 -16 0 -20 -7 -20 -30 0 -23 4 -30 20 -30 16 0 20 -7 20 -30
0 -23 -4 -30 -20 -30 -16 0 -20 -7 -20 -30 l0 -30 80 0 80 0 0 385 0 385 -80
0 c-47 0 -80 -4 -80 -10z"/>
<path fill="#00d2d3" d="M0 2350 c0 -23 4 -30 20 -30 16 0 20 -7 20 -30 0 -23 -4 -30 -20 -30
-16 0 -20 -7 -20 -35 0 -28 4 -35 20 -35 15 0 20 -7 20 -29 0 -35 12 -45 46
-37 19 5 24 13 24 36 0 28 -3 30 -35 30 -33 0 -35 2 -35 35 0 33 2 35 35 35
32 0 35 2 35 30 0 28 -3 30 -35 30 -32 0 -35 2 -35 30 0 23 -4 30 -20 30 -16
0 -20 -7 -20 -30z"/>
<path fil="#00d2d3" d="M0 2090 c0 -23 4 -30 20 -30 16 0 20 -7 20 -30 0 -23 -4 -30 -20 -30
-16 0 -20 -7 -20 -35 0 -28 4 -35 20 -35 15 0 20 -7 20 -29 0 -35 12 -45 46
-37 19 5 24 13 24 36 0 28 -3 30 -35 30 -33 0 -35 2 -35 35 0 33 2 35 35 35
32 0 35 2 35 30 0 28 -3 30 -35 30 -32 0 -35 2 -35 30 0 23 -4 30 -20 30 -16
0 -20 -7 -20 -30z"/>
<path fill="#00d2d3" d="M2380 918 c-36 -65 -38 -92 -5 -114 37 -24 60 -10 96 61 33 62 33 64
15 84 -11 12 -31 21 -47 21 -24 0 -34 -9 -59 -52z"/>
<path fill="#10ac84" d="M599 713 c-45 -23 -59 -37 -81 -82 -16 -30 -28 -66 -28 -80 0 -145
146 -241 275 -182 53 24 93 67 77 83 -8 8 -20 3 -47 -20 -42 -37 -71 -46 -130
-40 -80 10 -135 72 -135 156 0 75 77 152 152 152 89 0 147 -55 157 -149 4 -40
10 -56 21 -56 22 0 25 69 5 121 -27 72 -105 124 -186 124 -14 0 -50 -12 -80
-27z"/>
</g>
</svg>
