<?xml version="1.0" standalone="no"?>
<!DOCTYPE svg PUBLIC "-//W3C//DTD SVG 20010904//EN"
 "http://www.w3.org/TR/2001/REC-SVG-20010904/DTD/svg10.dtd">
<svg version="1.0" xmlns="http://www.w3.org/2000/svg"
 width="236.000000pt" height="335.000000pt" viewBox="0 0 236.000000 335.000000"
 preserveAspectRatio="xMidYMid meet">

<g transform="translate(0.000000,335.000000) scale(0.100000,-0.100000)"
fill="#dfe4ea" stroke="none">
<path d="M986 3141 c-7 -11 50 -25 83 -19 12 1 23 8 24 13 3 13 -99 19 -107 6z"/>
<path d="M250 3120 c0 -5 3 -10 8 -11 4 0 18 -2 32 -4 37 -6 92 4 85 16 -8 12
-125 12 -125 -1z"/>
<path d="M2020 3110 c0 -6 27 -10 60 -10 33 0 60 4 60 10 0 6 -27 10 -60 10
-33 0 -60 -4 -60 -10z"/>
<path d="M947 3103 c-34 -9 -5 -23 48 -23 54 0 79 12 49 24 -17 7 -69 6 -97
-1z"/>
<path d="M268 3083 c-10 -2 -18 -9 -18 -14 0 -12 117 -12 124 0 10 15 -65 25
-106 14z"/>
<path d="M2020 3070 c0 -6 27 -10 60 -10 33 0 60 4 60 10 0 6 -27 10 -60 10
-33 0 -60 -4 -60 -10z"/>
<path d="M250 3030 c0 -6 26 -10 59 -10 33 0 63 5 66 10 4 6 -18 10 -59 10
-37 0 -66 -4 -66 -10z"/>
<path d="M2020 3030 c0 -5 24 -10 54 -10 30 0 58 5 61 10 4 6 -17 10 -54 10
-34 0 -61 -4 -61 -10z"/>
<path d="M2036 2991 c-7 -10 67 -19 101 -13 13 2 20 8 17 13 -7 12 -111 12
-118 0z"/>
<path d="M1540 2890 c0 -6 28 -10 65 -10 37 0 65 4 65 10 0 6 -28 10 -65 10
-37 0 -65 -4 -65 -10z"/>
<path d="M1545 2850 c-4 -6 18 -10 59 -10 37 0 66 4 66 10 0 6 -26 10 -59 10
-33 0 -63 -4 -66 -10z"/>
<path d="M1540 2811 c0 -16 40 -23 86 -16 66 10 53 25 -21 25 -36 0 -65 -4
-65 -9z"/>
<path d="M390 2690 c0 -6 28 -10 65 -10 37 0 65 4 65 10 0 6 -28 10 -65 10
-37 0 -65 -4 -65 -10z"/>
<path d="M407 2653 c-17 -16 -4 -23 42 -23 60 0 89 9 69 21 -15 10 -102 12
-111 2z"/>
<path d="M405 2611 c-17 -8 -18 -10 -4 -16 24 -9 114 -2 114 10 0 13 -83 17
-110 6z"/>
<path d="M950 2555 c0 -49 3 -66 13 -62 8 2 12 24 12 62 0 38 -4 60 -12 63
-10 3 -13 -14 -13 -63z"/>
<path d="M1507 2454 c-13 -14 6 -24 43 -24 46 0 72 9 64 21 -6 10 -97 12 -107
3z"/>
<path d="M1515 2400 c3 -5 33 -10 66 -10 33 0 59 4 59 10 0 6 -29 10 -66 10
-41 0 -63 -4 -59 -10z"/>
<path d="M1507 2374 c-15 -15 7 -24 59 -24 40 0 55 4 52 13 -5 13 -99 23 -111
11z"/>
<path d="M1526 2331 c-18 -7 -18 -8 -2 -14 26 -10 104 -9 110 2 12 19 -67 28
-108 12z"/>
<path d="M190 2245 c0 -37 4 -65 10 -65 6 0 10 28 10 65 0 37 -4 65 -10 65 -6
0 -10 -28 -10 -65z"/>
<path d="M230 2251 c0 -64 14 -89 23 -42 7 35 -2 101 -14 101 -5 0 -9 -27 -9
-59z"/>
<path d="M279 2303 c0 -5 -2 -17 -5 -28 -6 -30 6 -96 17 -89 12 7 12 124 -1
124 -5 0 -10 -3 -11 -7z"/>
<path d="M1935 2298 c-10 -24 -1 -123 10 -121 14 4 19 113 6 126 -7 7 -12 5
-16 -5z"/>
<path d="M1990 2240 c0 -40 4 -70 10 -70 6 0 10 30 10 70 0 40 -4 70 -10 70
-6 0 -10 -30 -10 -70z"/>
<path d="M670 2220 c0 -5 6 -10 13 -11 6 0 25 -3 41 -5 36 -6 76 3 76 16 0 6
-29 10 -65 10 -37 0 -65 -4 -65 -10z"/>
<path d="M665 2170 c-3 -5 0 -13 8 -16 23 -9 122 0 122 11 0 14 -122 19 -130
5z"/>
<path d="M1180 2051 c0 -33 5 -63 10 -66 6 -4 10 18 10 59 0 37 -4 66 -10 66
-6 0 -10 -26 -10 -59z"/>
<path d="M1226 2103 c-9 -10 -7 -111 3 -117 13 -8 21 19 21 69 0 42 -10 62
-24 48z"/>
<path d="M1270 2044 c0 -41 4 -63 10 -59 6 3 10 33 10 66 0 33 -4 59 -10 59
-6 0 -10 -29 -10 -66z"/>
<path d="M1897 1893 c-10 -9 -8 -105 2 -121 12 -19 21 8 21 61 0 44 -11 72
-23 60z"/>
<path d="M1980 1835 c0 -37 4 -65 10 -65 6 0 10 28 10 65 0 37 -4 65 -10 65
-6 0 -10 -28 -10 -65z"/>
<path d="M1936 1883 c-8 -8 -8 -86 0 -107 12 -30 24 -5 24 49 0 51 -9 73 -24
58z"/>
<path d="M2050 1836 c0 -30 4 -57 9 -60 12 -8 23 57 15 88 -11 44 -24 29 -24
-28z"/>
<path d="M577 1783 c-11 -10 -8 -121 3 -128 6 -4 10 20 10 64 0 71 -1 77 -13
64z"/>
<path d="M480 1738 c0 -24 3 -53 6 -65 11 -40 24 -14 24 48 0 46 -3 59 -15 59
-11 0 -15 -11 -15 -42z"/>
<path d="M530 1714 c0 -41 4 -63 10 -59 6 3 10 33 10 66 0 33 -4 59 -10 59 -6
0 -10 -29 -10 -66z"/>
<path d="M940 1660 c0 -5 25 -10 55 -10 30 0 55 5 55 10 0 6 -25 10 -55 10
-30 0 -55 -4 -55 -10z"/>
<path d="M1590 1641 c0 -12 78 -91 90 -91 18 0 10 14 -32 57 -41 42 -58 52
-58 34z"/>
<path d="M925 1610 c3 -5 30 -10 60 -10 30 0 57 5 60 10 4 6 -18 10 -60 10
-42 0 -64 -4 -60 -10z"/>
<path d="M936 1581 c-8 -12 49 -24 88 -19 15 2 27 8 26 13 0 13 -106 19 -114
6z"/>
<path d="M322 1343 c4 -85 23 -86 23 -1 0 41 -4 63 -13 66 -10 3 -12 -12 -10
-65z"/>
<path d="M380 1340 c0 -40 4 -70 10 -70 6 0 10 30 10 70 0 40 -4 70 -10 70 -6
0 -10 -30 -10 -70z"/>
<path d="M1310 1270 c0 -33 4 -60 10 -60 6 0 10 27 10 60 0 33 -4 60 -10 60
-6 0 -10 -27 -10 -60z"/>
<path d="M1390 1270 c0 -33 4 -60 9 -60 11 0 24 82 15 103 -13 35 -24 15 -24
-43z"/>
<path d="M1270 1250 c0 -33 4 -60 10 -60 6 0 10 27 10 60 0 33 -4 60 -10 60
-6 0 -10 -27 -10 -60z"/>
<path d="M1350 1250 c0 -33 4 -60 10 -60 6 0 10 27 10 60 0 33 -4 60 -10 60
-6 0 -10 -27 -10 -60z"/>
<path d="M1895 1150 c3 -5 31 -10 61 -10 30 0 54 5 54 10 0 6 -27 10 -61 10
-37 0 -58 -4 -54 -10z"/>
<path d="M1910 1110 c0 -6 27 -10 60 -10 33 0 60 4 60 10 0 6 -27 10 -60 10
-33 0 -60 -4 -60 -10z"/>
<path d="M780 1044 c0 -48 3 -65 13 -62 22 8 20 128 -3 128 -6 0 -10 -29 -10
-66z"/>
<path d="M828 1081 c-6 -39 2 -101 13 -101 5 0 9 29 9 65 0 66 -14 89 -22 36z"/>
<path d="M870 1045 c0 -37 4 -65 10 -65 6 0 10 28 10 65 0 37 -4 65 -10 65 -6
0 -10 -28 -10 -65z"/>
<path d="M710 1045 c0 -30 5 -55 10 -55 6 0 10 25 10 55 0 30 -4 55 -10 55 -5
0 -10 -25 -10 -55z"/>
<path d="M1120 870 c0 -6 30 -10 71 -10 44 0 68 4 64 10 -3 6 -35 10 -71 10
-36 0 -64 -4 -64 -10z"/>
<path d="M1138 823 c-16 -2 -28 -9 -28 -14 0 -12 127 -12 134 0 5 8 -44 23
-68 20 -6 -1 -23 -4 -38 -6z"/>
<path d="M1636 773 c-8 -8 -8 -86 0 -107 13 -34 24 -14 24 43 0 56 -9 79 -24
64z"/>
<path d="M1680 715 c0 -49 3 -65 10 -55 5 8 10 33 10 55 0 22 -5 47 -10 55 -7
10 -10 -6 -10 -55z"/>
<path d="M1720 715 c0 -37 4 -65 10 -65 6 0 10 28 10 65 0 37 -4 65 -10 65 -6
0 -10 -28 -10 -65z"/>
<path d="M680 680 c0 -6 28 -10 65 -10 37 0 65 4 65 10 0 6 -28 10 -65 10 -37
0 -65 -4 -65 -10z"/>
<path d="M685 641 c-3 -5 4 -12 15 -16 25 -8 110 4 110 16 0 12 -117 12 -125
0z"/>
<path d="M685 600 c-3 -5 0 -13 8 -16 23 -9 112 0 110 11 -4 14 -110 19 -118
5z"/>
<path d="M1065 418 c-10 -24 -1 -123 10 -121 14 4 19 113 6 126 -7 7 -12 5
-16 -5z"/>
<path d="M338 373 c-10 -2 -18 -9 -18 -14 0 -12 107 -12 115 1 3 6 -4 10 -17
10 -13 0 -32 2 -43 4 -11 2 -28 2 -37 -1z"/>
<path d="M330 320 c0 -6 27 -10 60 -10 33 0 60 4 60 10 0 6 -27 10 -60 10 -33
0 -60 -4 -60 -10z"/>
<path d="M1877 307 c-10 -26 -9 -105 2 -111 12 -8 17 39 11 89 -4 30 -7 35
-13 22z"/>
<path d="M1955 291 c-8 -35 4 -103 16 -95 12 7 12 111 0 118 -5 4 -12 -7 -16
-23z"/>
<path d="M1180 245 c0 -37 4 -65 10 -65 6 0 10 28 10 65 0 37 -4 65 -10 65 -6
0 -10 -28 -10 -65z"/>
<path d="M1795 279 c-8 -44 -3 -84 10 -84 14 0 19 80 6 102 -8 14 -10 11 -16
-18z"/>
<path d="M1917 304 c-10 -11 -9 -114 2 -114 5 0 12 7 15 16 13 33 -1 114 -17
98z"/>
<path d="M1835 289 c-9 -24 -2 -104 10 -104 14 0 19 80 6 102 -9 16 -10 16
-16 2z"/>
<path d="M320 280 c0 -6 27 -10 61 -10 37 0 58 4 54 10 -3 6 -31 10 -61 10
-30 0 -54 -4 -54 -10z"/>
<path d="M335 240 c3 -5 31 -10 61 -10 30 0 54 5 54 10 0 6 -27 10 -61 10 -37
0 -58 -4 -54 -10z"/>
<path d="M1930 59 c0 -5 5 -7 10 -4 6 3 10 8 10 11 0 2 -4 4 -10 4 -5 0 -10
-5 -10 -11z"/>
<path d="M2230 59 c0 -5 5 -7 10 -4 6 3 10 8 10 11 0 2 -4 4 -10 4 -5 0 -10
-5 -10 -11z"/>
</g>
</svg>
