<?xml version="1.0" encoding="iso-8859-1"?>
<!-- Generator: Adobe Illustrator 19.0.0, SVG Export Plug-In . SVG Version: 6.00 Build 0)  -->
<svg version="1.1" id="Layer_1" xmlns="http://www.w3.org/2000/svg" xmlns:xlink="http://www.w3.org/1999/xlink" x="0px" y="0px"
	 viewBox="0 0 502.4 502.4" style="enable-background:new 0 0 502.4 502.4;" xml:space="preserve">
<path style="fill:#9AB7B6;" d="M251.2,502.4c-134.4,0-244-109.6-244-244s109.6-244,244-244s244,109.6,244,244
	S385.6,502.4,251.2,502.4z"/>
<circle style="fill:#9FBFC1;" cx="251.2" cy="244" r="228.8"/>
<g>
	<path style="fill:#8CAEAF;" d="M49.6,271.2C49.6,144.8,152,42.4,278.4,42.4c56,0,108,20,147.2,53.6c-41.6-48.8-104-80.8-174.4-80.8
		C124.8,15.2,22.4,117.6,22.4,244c0,70.4,31.2,132.8,80.8,174.4C70.4,379.2,49.6,327.2,49.6,271.2z"/>
	<path style="fill:#8CAEAF;" d="M412.8,82.4c89.6,89.6,89.6,234.4,0,323.2c-89.6,89.6-233.6,89.6-323.2,0"/>
</g>
<path style="fill:#BDD5D6;" d="M251.2,488c-134.4,0-244-109.6-244-244S116.8,0,251.2,0s244,109.6,244,244S385.6,488,251.2,488z
	 M251.2,31.2c-117.6,0-213.6,96-213.6,213.6s96,213.6,213.6,213.6s213.6-96,213.6-213.6C464.8,126.4,368.8,31.2,251.2,31.2z"/>
<g>
	<path style="fill:#ADC9C9;" d="M495.2,244c0-61.6-23.2-117.6-60.8-160.8c-43.2-37.6-99.2-60.8-160.8-60.8c-40.8,0-80,10.4-113.6,28
		c28-12.8,58.4-20.8,91.2-20.8c64.8,0,122.4,28.8,161.6,74.4c45.6,39.2,74.4,96.8,74.4,161.6c0,32.8-7.2,63.2-20.8,91.2
		C484.8,324,495.2,285.6,495.2,244z"/>
	<path style="fill:#ADC9C9;" d="M30.4,267.2c0,61.6,23.2,117.6,60.8,160.8c43.2,37.6,99.2,60.8,160.8,60.8c40.8,0,80-10.4,113.6-28
		c-28,12.8-58.4,20.8-91.2,20.8c-64.8,0-122.4-28.8-161.6-74.4C67.2,366.4,37.6,308.8,37.6,244c0-32.8,7.2-63.2,20.8-91.2
		C40,187.2,30.4,225.6,30.4,267.2z"/>
</g>
<g>
	<path style="fill:#DAEFEF;" d="M252.8,23.2c0,0.8-0.8,1.6-1.6,1.6l0,0c-0.8,0-1.6-0.8-1.6-1.6v-16c0-0.8,0.8-1.6,1.6-1.6l0,0
		c0.8,0,1.6,0.8,1.6,1.6V23.2z"/>
	<path style="fill:#DAEFEF;" d="M252.8,481.6c0,0.8-0.8,1.6-1.6,1.6l0,0c-0.8,0-1.6-0.8-1.6-1.6v-16c0-0.8,0.8-1.6,1.6-1.6l0,0
		c0.8,0,1.6,0.8,1.6,1.6V481.6z"/>
	<path style="fill:#DAEFEF;" d="M408.8,88.8c-0.8,0.8-2.4,0.8-2.4,0l0,0c-0.8-0.8-0.8-1.6,0-2.4l11.2-11.2c0.8-0.8,2.4-0.8,2.4,0
		l0,0c0.8,0.8,0.8,2.4,0,2.4L408.8,88.8z"/>
	<path style="fill:#DAEFEF;" d="M84.8,412.8c-0.8,0.8-2.4,0.8-2.4,0l0,0c-0.8-0.8-0.8-2.4,0-2.4l11.2-11.2c0.8-0.8,2.4-0.8,2.4,0
		l0,0c0.8,0.8,0.8,2.4,0,2.4L84.8,412.8z"/>
	<path style="fill:#DAEFEF;" d="M472.8,246.4c-0.8,0-1.6-0.8-1.6-1.6l0,0c0-0.8,0.8-1.6,1.6-1.6h16c0.8,0,1.6,0.8,1.6,1.6l0,0
		c0,0.8-0.8,1.6-1.6,1.6H472.8z"/>
	<path style="fill:#DAEFEF;" d="M14.4,246.4c-0.8,0-1.6-0.8-1.6-1.6l0,0c0-0.8,0.8-1.6,1.6-1.6h16c0.8,0,1.6,0.8,1.6,1.6l0,0
		c0,0.8-0.8,1.6-1.6,1.6H14.4z"/>
	<path style="fill:#DAEFEF;" d="M406.4,402.4c-0.8-0.8-0.8-1.6,0-2.4l0,0c0.8-0.8,1.6-0.8,2.4,0l11.2,11.2c0.8,0.8,0.8,2.4,0,2.4
		l0,0c-0.8,0.8-2.4,0.8-2.4,0L406.4,402.4z"/>
	<path style="fill:#DAEFEF;" d="M82.4,77.6c-0.8-0.8-0.8-1.6,0-2.4l0,0c0.8-0.8,2.4-0.8,2.4,0L96,86.4c0.8,0.8,0.8,2.4,0,2.4l0,0
		c-0.8,0.8-2.4,0.8-2.4,0L82.4,77.6z"/>
	<path style="fill:#DAEFEF;" d="M142.4,51.2c0.8,0.8,0,2.4-0.8,2.4l0,0c-0.8,0.8-2.4,0-2.4-0.8l-8-13.6c-0.8-0.8,0-2.4,0.8-2.4l0,0
		c0.8-0.8,2.4,0,2.4,0.8L142.4,51.2z"/>
	<path style="fill:#DAEFEF;" d="M371.2,448.8c0.8,0.8,0,2.4-0.8,2.4l0,0c-0.8,0.8-2.4,0-2.4-0.8l-8-13.6c-0.8-0.8,0-2.4,0.8-2.4l0,0
		c0.8-0.8,2.4,0,2.4,0.8L371.2,448.8z"/>
	<path style="fill:#DAEFEF;" d="M310.4,31.2c0,0.8-1.6,1.6-2.4,1.6l0,0c-0.8,0-1.6-1.6-1.6-2.4l4-15.2c0-0.8,1.6-1.6,2.4-1.6l0,0
		c0.8,0,1.6,1.6,1.6,2.4L310.4,31.2z"/>
	<path style="fill:#DAEFEF;" d="M192,473.6c0,0.8-1.6,1.6-2.4,1.6l0,0c-0.8,0-1.6-1.6-1.6-2.4l4-15.2c0-0.8,1.6-1.6,2.4-1.6l0,0
		c0.8,0,1.6,1.6,1.6,2.4L192,473.6z"/>
	<path style="fill:#DAEFEF;" d="M444,135.2c-0.8,0.8-2.4,0-2.4-0.8l0,0c-0.8-0.8,0-2.4,0.8-2.4l13.6-8c0.8-0.8,2.4,0,2.4,0.8l0,0
		c0.8,0.8,0,2.4-0.8,2.4L444,135.2z"/>
	<path style="fill:#DAEFEF;" d="M47.2,364.8c-0.8,0.8-2.4,0-2.4-0.8l0,0c-0.8-0.8,0-2.4,0.8-2.4l13.6-8c0.8-0.8,2.4,0,2.4,0.8l0,0
		c0.8,0.8,0,2.4-0.8,2.4L47.2,364.8z"/>
	<path style="fill:#DAEFEF;" d="M464.8,303.2c-0.8,0-1.6-1.6-1.6-2.4l0,0c0-0.8,1.6-1.6,2.4-1.6l15.2,4c0.8,0,1.6,1.6,1.6,2.4l0,0
		c0,0.8-1.6,1.6-2.4,1.6L464.8,303.2z"/>
	<path style="fill:#DAEFEF;" d="M21.6,184.8c-0.8,0-1.6-1.6-1.6-2.4l0,0c0-0.8,1.6-1.6,2.4-1.6l15.2,4c0.8,0,1.6,1.6,1.6,2.4l0,0
		c0,0.8-1.6,1.6-2.4,1.6L21.6,184.8z"/>
	<path style="fill:#DAEFEF;" d="M60.8,132c0.8,0.8,1.6,1.6,0.8,2.4l0,0c-0.8,0.8-1.6,1.6-2.4,0.8l-13.6-8c-0.8-0.8-1.6-1.6-0.8-2.4
		l0,0c0.8-0.8,1.6-1.6,2.4-0.8L60.8,132z"/>
	<path style="fill:#DAEFEF;" d="M457.6,360.8c0.8,0.8,1.6,1.6,0.8,2.4l0,0c-0.8,0.8-1.6,1.6-2.4,0.8l-13.6-8
		c-0.8-0.8-1.6-1.6-0.8-2.4l0,0c0.8-0.8,1.6-1.6,2.4-0.8L457.6,360.8z"/>
	<path style="fill:#DAEFEF;" d="M196,29.6c0,0.8,0,2.4-1.6,2.4l0,0c-0.8,0-2.4,0-2.4-1.6l-4-15.2c0-0.8,0-2.4,1.6-2.4l0,0
		c0.8,0,2.4,0,2.4,1.6L196,29.6z"/>
	<path style="fill:#DAEFEF;" d="M314.4,472.8c0,0.8,0,2.4-1.6,2.4l0,0c-0.8,0-2.4,0-2.4-1.6l-4-15.2c0-0.8,0-2.4,1.6-2.4l0,0
		c0.8,0,2.4,0,2.4,1.6L314.4,472.8z"/>
	<path style="fill:#DAEFEF;" d="M363.2,53.6c-0.8,0.8-1.6,1.6-2.4,0.8l0,0c-0.8-0.8-1.6-1.6-0.8-2.4l8-13.6c0.8-0.8,1.6-1.6,2.4-0.8
		l0,0c0.8,0.8,1.6,1.6,0.8,2.4L363.2,53.6z"/>
	<path style="fill:#DAEFEF;" d="M134.4,450.4c-0.8,0.8-1.6,1.6-2.4,0.8l0,0c-0.8-0.8-1.6-1.6-0.8-2.4l8-13.6
		c0.8-0.8,1.6-1.6,2.4-0.8l0,0c0.8,0.8,1.6,1.6,0.8,2.4L134.4,450.4z"/>
	<path style="fill:#DAEFEF;" d="M465.6,188.8c-0.8,0-2.4,0-2.4-1.6l0,0c0-0.8,0-2.4,1.6-2.4l15.2-4c0.8,0,2.4,0,2.4,1.6l0,0
		c0,0.8,0,2.4-1.6,2.4L465.6,188.8z"/>
	<path style="fill:#DAEFEF;" d="M22.4,307.2c-0.8,0-2.4,0-2.4-1.6l0,0c0-0.8,0-2.4,1.6-2.4l15.2-4c0.8,0,2.4,0,2.4,1.6l0,0
		c0,0.8,0,2.4-1.6,2.4L22.4,307.2z"/>
	<path style="fill:#DAEFEF;" d="M320.8,268.8h-11.2V164c0-8.8-7.2-16-16-16h-28c-4.8,0-9.6,2.4-12.8,6.4l-86.4,124
		c-1.6,2.4-3.2,5.6-3.2,8.8v17.6c0,8.8,7.2,16,16,16h74.4v36.8c0,8.8,7.2,16,16,16h24.8c8.8,0,16-7.2,16-16v-36.8h11.2
		c8.8,0,16-7.2,16-16V284C336.8,275.2,329.6,268.8,320.8,268.8z M236,268.8l17.6-24.8v24.8H236z"/>
</g>
<path style="fill:#BDD5D6;" d="M175.2,320c0.8,0,2.4,0.8,4,0.8h74.4v36.8c0,8.8,7.2,16,16,16h24.8c8.8,0,16-7.2,16-16v-36.8h11.2
	c8.8,0,16-7.2,16-16V284c0-8.8-7.2-16-16-16h-11.2v-82.4L175.2,320z M253.6,268.8H236l17.6-24.8V268.8z"/>
<path style="fill:#8CAEAF;" d="M198.4,90.4c0,7.2-6.4,20-13.6,20c-7.2,0-13.6-12-13.6-20s6.4-13.6,13.6-13.6
	C192.8,76.8,198.4,83.2,198.4,90.4z"/>
<circle style="fill:#BDD5D6;" cx="184.8" cy="90.4" r="13.6"/>
<path style="fill:#ADC9C9;" d="M194.4,80.8c5.6,5.6,5.6,14.4,0,19.2c-5.6,5.6-14.4,5.6-19.2,0"/>
<path style="fill:#8CAEAF;" d="M243.2,90.4c0,7.2-6.4,20-13.6,20c-7.2,0-13.6-12-13.6-20s6.4-13.6,13.6-13.6S243.2,83.2,243.2,90.4z
	"/>
<circle style="fill:#BDD5D6;" cx="228.8" cy="90.4" r="13.6"/>
<path style="fill:#ADC9C9;" d="M239.2,80.8c5.6,5.6,5.6,14.4,0,19.2c-5.6,5.6-14.4,5.6-19.2,0"/>
<path style="fill:#8CAEAF;" d="M287.2,90.4c0,7.2-6.4,20-13.6,20s-13.6-12-13.6-20s6.4-13.6,13.6-13.6S287.2,83.2,287.2,90.4z"/>
<circle style="fill:#BDD5D6;" cx="273.6" cy="90.4" r="13.6"/>
<path style="fill:#ADC9C9;" d="M283.2,80.8c5.6,5.6,5.6,14.4,0,19.2c-5.6,5.6-14.4,5.6-19.2,0"/>
<path style="fill:#8CAEAF;" d="M331.2,90.4c0,7.2-6.4,20-13.6,20s-13.6-12-13.6-20s6.4-13.6,13.6-13.6S331.2,83.2,331.2,90.4z"/>
<circle style="fill:#BDD5D6;" cx="317.6" cy="90.4" r="13.6"/>
<path style="fill:#ADC9C9;" d="M327.2,80.8c5.6,5.6,5.6,14.4,0,19.2c-5.6,5.6-14.4,5.6-19.2,0"/>
<g>
</g>
<g>
</g>
<g>
</g>
<g>
</g>
<g>
</g>
<g>
</g>
<g>
</g>
<g>
</g>
<g>
</g>
<g>
</g>
<g>
</g>
<g>
</g>
<g>
</g>
<g>
</g>
<g>
</g>
</svg>
