<?xml version="1.0" encoding="iso-8859-1"?>
<!-- Generator: Adobe Illustrator 19.0.0, SVG Export Plug-In . SVG Version: 6.00 Build 0)  -->
<svg version="1.1" id="Capa_1" xmlns="http://www.w3.org/2000/svg" xmlns:xlink="http://www.w3.org/1999/xlink" x="0px" y="0px"
	 viewBox="0 0 37.381 37.381" style="enable-background:new 0 0 37.381 37.381;" xml:space="preserve">
<g>
	<g>
		<path fill="#718093de" d="M16.228,32.898c-1.018,0-1.029,0.931-1.029,2.396c-0.01,1.476,0.147,2.114,1.029,2.084
			c0.874,0.032,1.018-0.608,1.012-2.084C17.24,33.829,17.226,32.897,16.228,32.898z M16.567,35.878c0,0.521-0.027,0.754-0.339,0.754
			c-0.319,0-0.36-0.233-0.36-0.754v-1.416c0-0.397,0-0.815,0.36-0.815c0.339,0,0.339,0.418,0.339,0.815V35.878z"/>
	</g>
</g>
<g>
	<g>
		<path fill="#718093de" d="M13.405,33.721v-0.713h-0.291V31.83h-0.68v1.176h-0.26v0.713h0.271v2.896c0,0.797,0.552,0.734,0.96,0.676v-0.775
			c-0.085,0.012-0.271,0.043-0.291-0.133v-2.662H13.405z"/>
	</g>
</g>
<g>
	<g>
		<path fill="#718093de" d="M14.599,33.16c-0.096,0.117-0.175,0.289-0.261,0.601h-0.01v-0.754h-0.652v4.267h0.679v-2.463
			c0.011-0.632,0.292-0.769,0.669-0.709v-1.173C14.918,32.938,14.784,32.926,14.599,33.16z"/>
	</g>
</g>
<g>
	<g>
		<path fill="#718093de" d="M12.037,34.492v-0.34c0.01-0.634-0.23-1.255-0.912-1.255c-0.515,0-0.919,0.312-0.912,1.517v1.375
			c-0.028,1.137,0.311,1.592,0.912,1.592c0.672,0,0.912-0.485,0.912-1.379v-0.394h-0.669v0.394c-0.02,0.34-0.027,0.621-0.229,0.631
			c-0.195-0.037-0.264-0.19-0.257-1.024v-1.013c0-0.514,0-0.948,0.257-0.948c0.145,0,0.219,0.137,0.229,0.371v0.473H12.037z"/>
	</g>
</g>
<g>
	<g>
		<rect fill="#718093de" x="6.664" y="31.595" width="0.64" height="5.677"/>
	</g>
</g>
<g>
	<g>
		<path fill="#718093de" d="M9.827,35.342V34.77c0-1.174-0.099-1.873-1.042-1.873c-0.659,0-1.009,0.572-0.978,1.582v1.113
			c-0.01,1.252,0.302,1.787,1.077,1.787c0.688,0,0.96-0.602,0.929-1.555H9.137c0.007,0.545-0.058,0.807-0.311,0.807
			c-0.193,0-0.341-0.106-0.351-0.668v-0.621H9.827z M8.476,34.415c0-0.393-0.02-0.77,0.323-0.77c0.271,0,0.346,0.145,0.346,0.563
			v0.379H8.476V34.415z"/>
	</g>
</g>
<g>
	<g>
		<path fill="#718093de" d="M6.13,35.342V34.77c0-1.174-0.099-1.873-1.039-1.873c-0.659,0-1.019,0.572-0.981,1.582v1.113
			c-0.017,1.252,0.302,1.787,1.08,1.787c0.685,0,0.957-0.602,0.929-1.555H5.451c0.01,0.545-0.069,0.807-0.313,0.807
			c-0.203,0-0.346-0.106-0.36-0.668v-0.621H6.13z M4.779,34.415c0-0.393-0.007-0.77,0.322-0.77c0.271,0,0.35,0.145,0.36,0.563
			l0.001,0.379H4.779V34.415z"/>
	</g>
</g>
<g>
	<g>
		<path fill="#718093de" d="M26.382,34.492v-0.34c0.015-0.634-0.238-1.255-0.92-1.255c-0.514,0-0.912,0.312-0.899,1.517v1.375
			c-0.027,1.137,0.309,1.592,0.899,1.592c0.67,0,0.92-0.485,0.92-1.379v-0.394h-0.668v0.394c-0.019,0.34-0.027,0.621-0.233,0.631
			c-0.203-0.037-0.282-0.19-0.257-1.024v-1.013c0-0.514,0-0.948,0.257-0.948c0.137,0,0.223,0.137,0.233,0.371v0.473H26.382z"/>
	</g>
</g>
<g>
	<g>
		<path fill="#718093de" d="M30.945,35.862c-0.021-0.275-0.281-0.686-0.445-0.833l-0.562-0.541c-0.127-0.127-0.254-0.244-0.254-0.494
			c0-0.243,0.126-0.35,0.283-0.35c0.24,0,0.33,0.185,0.315,0.656h0.673c0.021-0.912-0.281-1.404-0.943-1.404
			c-0.637,0-0.998,0.371-0.998,1.027c0,0.611,0.225,1.01,0.564,1.348l0.359,0.371c0.126,0.125,0.317,0.262,0.327,0.504
			c0.05,0.271-0.077,0.482-0.279,0.482c-0.147,0-0.36,0.021-0.312-0.766h-0.669c-0.074,1.301,0.595,1.514,0.94,1.514
			C30.885,37.376,31.012,36.61,30.945,35.862z"/>
	</g>
</g>
<g>
	<g>
		<path fill="#718093de" d="M28.665,36.678l0.001-2.523c0-0.569-0.048-1.258-0.971-1.258c-0.843,0-1.019,0.562-1.019,1.367h0.642
			c0-0.387,0.049-0.619,0.358-0.619c0.178,0,0.285,0.031,0.311,0.223c0.052,0.341-0.047,0.546-0.329,0.709
			c-0.531,0.318-0.999,0.562-0.999,1.523c0,0.89,0.233,1.277,0.775,1.277c0.233,0,0.438-0.195,0.604-0.541
			c0,0.155,0,0.299,0.036,0.436h0.64C28.675,37.067,28.665,36.873,28.665,36.678z M27.985,35.484
			c-0.01,0.414,0.053,1.149-0.339,1.149c-0.24,0-0.319-0.224-0.319-0.551c0-0.177,0.016-0.39,0.106-0.517
			c0.185-0.205,0.388-0.377,0.552-0.541V35.484z"/>
	</g>
</g>
<g>
	<g>
		<path fill="#718093de" d="M32.594,32.897c-0.137,0-0.418,0.041-0.604,0.545h-0.006v-1.846h-0.681v5.677h0.681V34.44
			c-0.011-0.467,0.075-0.807,0.329-0.795c0.254,0.021,0.279,0.291,0.279,0.705v2.922h0.681v-3.299
			C33.295,33.215,32.983,32.897,32.594,32.897z"/>
	</g>
</g>
<g>
	<g>
		<rect fill="#718093de" x="20.15" y="33" width="0.68" height="4.271"/>
	</g>
</g>
<g>
	<g>
		<rect fill="#718093de" x="20.15" y="31.594" width="0.68" height="0.893"/>
	</g>
</g>
<g>
	<g>
		<path fill="#718093de" d="M18.955,32.897c-0.155,0-0.457,0.049-0.611,0.545h-0.01v-0.436h-0.669v4.266h0.669v-2.764
			c-0.011-0.445,0.079-0.795,0.33-0.789c0.253,0.023,0.292,0.295,0.292,0.709v2.844h0.667v-3.299
			C19.643,33.215,19.332,32.897,18.955,32.897z"/>
	</g>
</g>
<g>
	<g>
		<path fill="#718093de" d="M33.244,11.303V0.001H20.982v16.996h-4.218v1.694H13.65l-0.001,4.289h-1.06c-0.707,0-1.29-0.59-1.29-1.338v-4.647h5.464
			V3.262c0.021-0.864,0.312-1.636,0.912-2.26c0.296-0.316,0.66-0.57,1.057-0.737l0.134-0.062l0.137-0.049l0.147-0.037l0.135-0.038
			l0.154-0.031l0.147-0.017l0.145-0.021L19.883,0H7.265C5.452,0,4.131,1.469,4.131,3.289v22.24c0,1.81,1.321,3.285,3.134,3.285
			h12.526l-0.154-0.018l-0.145-0.02l-0.158-0.027l-0.144-0.037l-0.138-0.053l-0.144-0.049l-0.137-0.047
			c-0.442-0.199-0.727-0.4-1.077-0.736c-0.302-0.32-0.545-0.697-0.706-1.109l-0.049-0.133l-0.041-0.158l-0.038-0.145l-0.038-0.146
			l-0.021-0.157l-0.021-0.144l-0.007-0.166l-0.01-0.146v-6.831h4.218V28.81h12.263V16.988h-6.973l-0.031,0.106v5.876
			c-1.104,0.182-2.271-0.068-2.339-1.346v0.105l-0.007-0.126l0.007,0.021V7.162L23.894,7.18l0.007-0.515v0.497
			c0.063-1.272,1.237-1.519,2.321-1.347v5.488H33.244z M11.299,7.104c0-0.709,0.583-1.272,1.272-1.272h1.077v5.48h-2.35
			L11.299,7.104z"/>
	</g>
</g>
<g>
	<g>
		<path fill="#718093de" d="M23.126,34.492v-0.34c0-0.634-0.246-1.255-0.922-1.255c-0.512,0-0.912,0.312-0.912,1.517v1.375
			c-0.026,1.137,0.322,1.592,0.912,1.592c0.668,0,0.922-0.485,0.922-1.379v-0.394H22.45v0.394c-0.021,0.34-0.021,0.621-0.228,0.631
			c-0.201-0.037-0.271-0.19-0.254-1.024v-1.013c-0.006-0.514-0.006-0.948,0.254-0.948c0.138,0,0.213,0.137,0.228,0.371v0.473H23.126
			z"/>
	</g>
</g>
<g>
</g>
<g>
</g>
<g>
</g>
<g>
</g>
<g>
</g>
<g>
</g>
<g>
</g>
<g>
</g>
<g>
</g>
<g>
</g>
<g>
</g>
<g>
</g>
<g>
</g>
<g>
</g>
<g>
</g>
</svg>
