<?xml version="1.0" encoding="iso-8859-1"?>
<!-- Generator: Adobe Illustrator 18.1.1, SVG Export Plug-In . SVG Version: 6.00 Build 0)  -->
<svg version="1.1" id="Capa_1" xmlns="http://www.w3.org/2000/svg" xmlns:xlink="http://www.w3.org/1999/xlink" x="0px" y="0px"
	 viewBox="0 0 15.594 15.594" style="enable-background:new 0 0 15.594 15.594;" xml:space="preserve">
<g>
	<g>
		<path style="fill:#030104;" d="M14.252,0H1.341C0.602,0,0,0.602,0,1.341v12.911c0,0.74,0.602,1.342,1.341,1.342h12.912
			c0.739,0,1.341-0.602,1.341-1.342V1.341C15.593,0.602,14.991,0,14.252,0z M14.444,14.252c0,0.107-0.086,0.193-0.191,0.193H1.341
			c-0.106,0-0.192-0.086-0.192-0.193V1.341c0-0.105,0.086-0.191,0.192-0.191h12.912c0.105,0,0.191,0.086,0.191,0.191V14.252z"/>
		<path style="fill:#030104;" d="M10.147,3.063h-2.71L3.853,8.832v1.441h4.195v2.258h2.099v-2.258h1.136v-1.66h-1.136V3.063z
			 M8.048,6.515v2.098H5.922V8.584l1.267-2.069c0.32-0.597,0.568-1.15,0.875-1.763h0.058C8.077,5.365,8.048,5.947,8.048,6.515z"/>
	</g>
</g>
<g>
</g>
<g>
</g>
<g>
</g>
<g>
</g>
<g>
</g>
<g>
</g>
<g>
</g>
<g>
</g>
<g>
</g>
<g>
</g>
<g>
</g>
<g>
</g>
<g>
</g>
<g>
</g>
<g>
</g>
</svg>
