<?xml version="1.0" encoding="iso-8859-1"?>
<!-- Generator: Adobe Illustrator 19.0.0, SVG Export Plug-In . SVG Version: 6.00 Build 0)  -->
<svg version="1.1" id="Capa_1" xmlns="http://www.w3.org/2000/svg" xmlns:xlink="http://www.w3.org/1999/xlink" x="0px" y="0px"
	 viewBox="0 0 512.029 512.029" style="enable-background:new 0 0 512.029 512.029;" xml:space="preserve">
<g>
	<g>
		<path fill="#718093de" d="M203.229,160.014c-3.648,0-7.424,0.448-11.2,0.896v28.256c0.256,0,0.512-0.064,0.8-0.064
			c42.688,0,81.6,33.024,83.232,34.432c6.688,5.76,7.424,15.808,1.696,22.528c-5.728,6.72-15.808,7.456-22.528,1.76
			c-0.32-0.256-31.68-26.688-62.4-26.688c-0.256-0.032-0.544,0.064-0.8,0.064v66.304c6.592,1.984,13.632,3.392,21.6,3.392
			c45.696,0,99.712-36.832,132.128-65.184C309.597,195.95,248.157,160.014,203.229,160.014z"/>
	</g>
</g>
<g>
	<g>
		<path fill="#718093de" d="M496.029,64.014h-288c-8.832,0-16,7.168-16,16v48.8c3.744-0.352,7.488-0.8,11.2-0.8
			c63.616,0,142.592,52.672,177.408,85.888c3.168,2.976,4.928,7.136,4.96,11.456s-1.728,8.512-4.8,11.552
			c-8.992,8.8-90.048,86.016-167.2,86.016c-7.712,0-14.816-0.928-21.6-2.272v29.6c3.936,0.896,7.84,1.76,11.232,1.76
			c44.608,0,176.192-36.384,217.6-76.896c6.272-6.176,16.48-6.048,22.624,0.256c6.176,6.304,6.048,16.448-0.256,22.624
			c-49.856,48.832-189.216,86.016-239.968,86.016c-3.552,0-7.456-1.088-11.2-1.664v49.664c0,8.832,7.168,16,16,16h288
			c8.832,0,16-7.168,16-16v-352C512.029,71.182,504.861,64.014,496.029,64.014z"/>
	</g>
</g>
<g>
	<g>
		<path fill="#718093de" d="M192.029,189.166c-42.4,0.416-80.8,32.96-82.432,34.336c-4.96,4.256-6.816,11.104-4.704,17.28
			c1.024,3.072,23.904,67.424,87.136,79.872v-33.12c-28.672-8.576-45.024-32.544-52.256-46.656
			c11.52-7.776,32.064-19.36,52.256-19.68V189.166z"/>
	</g>
</g>
<g>
	<g>
		<path fill="#718093de" d="M192.029,160.91v-32.096c-42.912,3.968-88.096,29.472-131.936,54.496c-17.376,9.888-34.528,19.68-51.104,27.776
			c-4.32,2.112-7.488,6.08-8.576,10.784c-1.088,4.704,0,9.632,2.976,13.44c54.368,69.472,131.648,138.688,188.64,147.04v-32.096
			c-37.824-8.416-98.304-56-151.2-119.552c11.52-6.176,23.296-12.864,35.104-19.616C115.709,188.398,156.669,165.23,192.029,160.91z
			"/>
	</g>
</g>
<g>
</g>
<g>
</g>
<g>
</g>
<g>
</g>
<g>
</g>
<g>
</g>
<g>
</g>
<g>
</g>
<g>
</g>
<g>
</g>
<g>
</g>
<g>
</g>
<g>
</g>
<g>
</g>
<g>
</g>
</svg>
