<svg id="_x31_px" enable-background="new 0 0 24 24" height="512" viewBox="0 0 24 24" width="512" xmlns="http://www.w3.org/2000/svg"><path fill="#718093de" d="m18.677 23.994c-.974 0-2.102-.308-3.398-.923-1.446-.686-2.143-.662-2.604-.64-.371.011-.758.029-1.14-.353-.134-.134-.743-.864.454-2.061.597-.597 1.416-.769 2.127-.779l-4.146-4.146c-.275-.274-.427-.641-.426-1.03s.153-.754.429-1.029.641-.428 1.03-.429h.002c.388 0 .753.151 1.028.427l1.722 1.723c.069-.138.161-.265.273-.376.395-.396.961-.518 1.462-.362.07-.198.185-.385.343-.543.543-.544 1.411-.568 1.981-.075.068-.138.16-.266.274-.38.569-.569 1.492-.57 2.06-.003l2.7 2.7c1.695 1.694 1.506 4.15-.461 6.118-.004.004-.008.008-.013.013l-1.117 1.116c-.696.688-1.552 1.032-2.58 1.032zm-5.731-2.569c.546 0 1.385.09 2.762.742 2.985 1.417 4.195.729 4.847.086l1.126-1.126c.003-.004.007-.007.01-.01 1.192-1.206 2.009-3.137.459-4.687l-2.708-2.708c-.177-.177-.467-.175-.646.003-.178.178-.18.467-.004.645l.001.001.675.675c.098.098.146.226.146.354s-.049.256-.146.354c-.195.195-.512.195-.707 0l-1.575-1.575c-.177-.177-.467-.176-.646.003s-.18.468-.002.646l1.125 1.125c.098.098.146.226.146.354s-.049.256-.146.354c-.195.195-.512.195-.707 0l-1.575-1.575c-.177-.177-.466-.175-.646.003-.087.087-.135.203-.135.325 0 .121.047.235.132.32l1.125 1.125c.098.098.146.226.146.354s-.049.256-.146.354c-.195.195-.512.195-.707 0l-3.825-3.824c-.086-.086-.2-.134-.321-.134-.122.001-.237.049-.324.136s-.135.202-.136.324c0 .121.047.235.133.321l5.175 5.175c.162.161.193.412.076.608s-.354.288-.571.225c-.019-.005-1.81-.519-2.662.331-.387.388-.444.626-.434.679.042.029.052.04.374.027.093-.006.196-.01.311-.01zm5.498-8.053h.01z"/><path fill="#718093de" d="m18.5 8h-15c-1.93 0-3.5-1.57-3.5-3.5s1.57-3.5 3.5-3.5h15c1.93 0 3.5 1.57 3.5 3.5s-1.57 3.5-3.5 3.5zm-15-6c-1.378 0-2.5 1.121-2.5 2.5s1.122 2.5 2.5 2.5h15c1.378 0 2.5-1.121 2.5-2.5s-1.122-2.5-2.5-2.5z"/><path fill="#718093de" d="m4.5 6c-.827 0-1.5-.673-1.5-1.5s.673-1.5 1.5-1.5 1.5.673 1.5 1.5-.673 1.5-1.5 1.5zm0-2c-.276 0-.5.225-.5.5s.224.5.5.5.5-.225.5-.5-.224-.5-.5-.5z"/><path fill="#718093de" d="m9.5 6c-.827 0-1.5-.673-1.5-1.5s.673-1.5 1.5-1.5 1.5.673 1.5 1.5-.673 1.5-1.5 1.5zm0-2c-.276 0-.5.225-.5.5s.224.5.5.5.5-.225.5-.5-.224-.5-.5-.5z"/><path fill="#718093de" d="m7.5 14h-4c-1.93 0-3.5-1.57-3.5-3.5 0-.934.364-1.812 1.026-2.474s1.541-1.026 2.474-1.026h15c1.93 0 3.5 1.57 3.5 3.5 0 .276-.224.5-.5.5s-.5-.224-.5-.5c0-1.379-1.122-2.5-2.5-2.5h-15c-.666 0-1.293.261-1.767.733s-.733 1.101-.733 1.767c0 1.379 1.122 2.5 2.5 2.5h4c.276 0 .5.224.5.5s-.224.5-.5.5z"/><path fill="#718093de" d="m4.5 12c-.827 0-1.5-.673-1.5-1.5s.673-1.5 1.5-1.5 1.5.673 1.5 1.5-.673 1.5-1.5 1.5zm0-2c-.276 0-.5.225-.5.5s.224.5.5.5.5-.225.5-.5-.224-.5-.5-.5z"/><path fill="#718093de" d="m9.5 12c-.827 0-1.5-.673-1.5-1.5s.673-1.5 1.5-1.5 1.5.673 1.5 1.5-.673 1.5-1.5 1.5zm0-2c-.276 0-.5.225-.5.5s.224.5.5.5.5-.225.5-.5-.224-.5-.5-.5z"/><path fill="#718093de" d="m9.5 20h-6c-1.93 0-3.5-1.57-3.5-3.5 0-.934.364-1.812 1.026-2.474s1.541-1.026 2.474-1.026h4c.276 0 .5.224.5.5s-.224.5-.5.5h-4c-.666 0-1.293.261-1.767.733s-.733 1.101-.733 1.767c0 1.379 1.122 2.5 2.5 2.5h6c.276 0 .5.224.5.5s-.224.5-.5.5z"/><path fill="#718093de" d="m4.5 18c-.827 0-1.5-.673-1.5-1.5s.673-1.5 1.5-1.5 1.5.673 1.5 1.5-.673 1.5-1.5 1.5zm0-2c-.276 0-.5.225-.5.5s.224.5.5.5.5-.225.5-.5-.224-.5-.5-.5z"/></svg>