<?xml version="1.0" encoding="iso-8859-1"?>
<!-- Generator: Adobe Illustrator 19.0.0, SVG Export Plug-In . SVG Version: 6.00 Build 0)  -->
<svg version="1.1" id="Capa_1" xmlns="http://www.w3.org/2000/svg" xmlns:xlink="http://www.w3.org/1999/xlink" x="0px" y="0px"
	 viewBox="0 0 512 512" style="enable-background:new 0 0 512 512;" xml:space="preserve">
<g>
	<g>
		<path fill="#718093de" d="M511.833,299.873v-0.001c-1.135-16.49-8.341-32.013-20.29-43.71c-11.944-11.692-27.616-18.571-44.125-19.37
			c-7.551-0.365-15.062,0.517-22.23,2.582c-3.587-25.233-15.303-48.5-33.771-66.621c-21.918-21.506-50.905-33.35-81.618-33.35
			c-18.36,0-35.954,4.168-52.29,12.387c-3.372,1.686-5.53,5.149-5.53,8.95v201.861c0,5.523,4.477,9.999,9.999,9.999H444.05
			c18.758,0,36.864-7.867,49.672-21.585C506.709,337.101,513.142,318.94,511.833,299.873z M479.105,337.364
			c-9.173,9.825-21.623,15.236-35.055,15.236H271.977V167.103c11.95-5.115,24.644-7.703,37.821-7.703
			c52.152,0,95.461,42.419,96.543,94.56c0.073,3.491,1.961,6.691,4.982,8.442c3.02,1.751,6.736,1.799,9.801,0.129
			c7.71-4.204,16.465-6.195,25.325-5.767c23.84,1.154,43.796,20.691,45.433,44.479C492.807,314.72,488.269,327.549,479.105,337.364z
			"/>
	</g>
</g>
<g>
	<g>
		<path fill="#718093de" d="M225.981,163.815c-5.523,0-9.999,4.477-9.999,9.999v181.985c0,5.523,4.477,9.999,9.999,9.999s9.999-4.477,9.999-9.999
			V173.814C235.98,168.292,231.504,163.815,225.981,163.815z"/>
	</g>
</g>
<g>
	<g>
		<path fill="#718093de" d="M189.984,192.437c-5.523,0-9.999,4.477-9.999,9.999v153.363c0,5.523,4.477,9.999,9.999,9.999
			c5.523,0,9.999-4.477,9.999-9.999V202.436C199.983,196.913,195.507,192.437,189.984,192.437z"/>
	</g>
</g>
<g>
	<g>
		<path fill="#718093de" d="M153.987,178.3c-5.523,0-9.999,4.477-9.999,9.999v167.5c0,5.523,4.477,9.999,9.999,9.999s9.999-4.477,9.999-9.999v-167.5
			C163.986,182.777,159.51,178.3,153.987,178.3z"/>
	</g>
</g>
<g>
	<g>
		<path fill="#718093de" d="M117.99,169.315c-5.523,0-9.999,4.477-9.999,9.999v176.485c0,5.523,4.477,9.999,9.999,9.999
			c5.523,0,9.999-4.477,9.999-9.999V179.314C127.989,173.791,123.513,169.315,117.99,169.315z"/>
	</g>
</g>
<g>
	<g>
		<path fill="#718093de" d="M81.993,216.311c-5.523,0-9.999,4.477-9.999,9.999v129.489c0,5.523,4.477,9.999,9.999,9.999s9.999-4.477,9.999-9.999
			V226.31C91.992,220.787,87.516,216.311,81.993,216.311z"/>
	</g>
</g>
<g>
	<g>
		<path fill="#718093de" d="M45.996,272.665c-5.523,0-9.999,4.477-9.999,9.999V345.3c0,5.523,4.477,9.999,9.999,9.999
			c5.523,0,9.999-4.477,9.999-9.999v-62.636C55.995,277.142,51.519,272.665,45.996,272.665z"/>
	</g>
</g>
<g>
	<g>
		<path fill="#718093de" d="M53.066,233.241c-1.86-1.86-4.44-2.93-7.069-2.93c-2.63,0-5.21,1.07-7.069,2.93c-1.86,1.86-2.93,4.43-2.93,7.069
			c0,2.63,1.07,5.21,2.93,7.069c1.86,1.86,4.44,2.93,7.069,2.93c2.63,0,5.21-1.07,7.069-2.93c1.86-1.86,2.93-4.44,2.93-7.069
			C55.995,237.671,54.925,235.101,53.066,233.241z"/>
	</g>
</g>
<g>
	<g>
		<path fill="#718093de" d="M9.999,246C4.477,246,0,250.477,0,255.999v76.29c0,5.523,4.477,9.999,9.999,9.999s9.999-4.477,9.999-9.999v-76.29
			C19.998,250.477,15.522,246,9.999,246z"/>
	</g>
</g>
<g>
	<g>
		<path fill="#718093de" d="M310.113,184.818h-0.316c-5.523,0-9.999,4.477-9.999,9.999s4.477,9.999,9.999,9.999H310c0.02,0,0.038,0,0.058,0
			c5.496,0,9.967-4.441,9.997-9.942C320.087,189.352,315.634,184.849,310.113,184.818z"/>
	</g>
</g>
<g>
	<g>
		<path fill="#718093de" d="M353.108,199.774c-4.344-3.412-10.629-2.655-14.04,1.688c-3.412,4.344-2.655,10.629,1.688,14.04
			c11.898,9.343,18.902,23.361,19.215,38.458c0.113,5.451,4.567,9.791,9.993,9.791c0.07,0,0.141,0,0.212,0
			c5.522-0.115,9.904-4.685,9.79-10.205C379.528,232.433,369.739,212.834,353.108,199.774z"/>
	</g>
</g>
<g>
</g>
<g>
</g>
<g>
</g>
<g>
</g>
<g>
</g>
<g>
</g>
<g>
</g>
<g>
</g>
<g>
</g>
<g>
</g>
<g>
</g>
<g>
</g>
<g>
</g>
<g>
</g>
<g>
</g>
</svg>
